<svg version="1.1" id="Layer_1" xmlns="http://www.w3.org/2000/svg" xmlns:xlink="http://www.w3.org/1999/xlink" x="0px" y="0px"
	 width="100%" viewBox="0 0 1000 375" enable-background="new 0 0 1000 375" xml:space="preserve">
<path fill="#FFFFFF" opacity="1.000000" stroke="none" 
	d="
M682.000000,376.000000 
	C454.666718,376.000000 227.833420,376.000000 1.000091,376.000000 
	C1.000061,251.000061 1.000061,126.000130 1.000030,1.000142 
	C334.333221,1.000094 667.666443,1.000094 1000.999756,1.000047 
	C1000.999817,125.999855 1000.999817,250.999710 1000.999878,375.999786 
	C894.833313,376.000000 788.666687,376.000000 682.000000,376.000000 
M833.019165,279.008545 
	C848.832581,279.621857 862.104858,274.251648 873.115173,262.289673 
	C870.736694,260.035034 868.845703,257.857483 866.553223,256.253876 
	C865.599609,255.586853 863.226624,255.528870 862.453857,256.236542 
	C851.008850,266.717834 837.683105,269.754913 822.658569,267.025482 
	C797.798035,262.509186 781.554016,239.396759 786.389954,213.699936 
	C789.853088,195.297516 801.407104,183.268570 819.921814,178.530731 
	C833.771851,174.986572 846.835449,177.029953 858.468567,185.180237 
	C866.116150,190.538223 864.317627,191.004822 870.904053,184.574722 
	C871.701538,183.796143 872.377441,182.893127 873.571716,181.514450 
	C869.015930,178.262909 864.964661,174.923111 860.502319,172.276367 
	C849.994995,166.044174 838.330872,165.521179 826.495972,165.978012 
	C808.223267,166.683334 793.348816,174.281372 783.110474,189.227173 
	C772.422363,204.829559 770.164978,222.103745 775.677368,240.509750 
	C779.528870,253.370346 787.358032,263.130676 798.092957,270.277710 
	C807.802124,276.741852 818.926208,279.983521 831.092773,279.504791 
	C831.431702,279.350220 831.770569,279.195618 833.019165,279.008545 
M679.636780,248.322220 
	C679.758179,250.470764 679.808289,252.626190 680.014282,254.766586 
	C680.626526,261.126801 683.404785,266.627686 688.259521,270.526520 
	C699.961304,279.924347 713.843628,280.132111 727.816406,278.537140 
	C738.206909,277.351044 746.833618,272.025330 754.803040,264.933075 
	C756.417603,266.988678 757.667358,268.956940 759.282227,270.556610 
	C762.551392,273.794891 765.780090,277.223267 769.633423,279.578674 
	C770.292175,279.981354 773.974182,275.452637 776.241821,273.184357 
	C776.443787,272.982391 776.514404,272.649139 776.592896,272.486908 
	C771.422241,266.818329 766.290344,261.192261 762.009521,256.499146 
	C765.223389,247.391617 768.179321,239.014969 771.245422,230.326065 
	C767.204224,228.968445 763.993835,227.889954 761.098328,226.917206 
	C758.594910,233.947418 756.230408,240.587540 753.481079,248.308273 
	C743.069397,237.374313 733.701538,227.536545 724.622925,218.002548 
	C730.144714,213.784851 736.094360,210.160843 740.902832,205.387344 
	C753.174316,193.205063 750.226440,170.629837 730.954163,166.590393 
	C726.598816,165.677521 721.948120,165.962906 717.438599,166.033325 
	C696.647400,166.357941 687.531616,185.914688 696.025513,201.780792 
	C698.774231,206.915314 702.404907,211.577698 704.945435,215.417953 
	C698.329224,221.418503 691.442566,227.168121 685.204895,233.551880 
	C682.491943,236.328339 681.112305,240.407623 679.009094,243.001663 
	C678.672241,238.927063 678.904114,234.702118 677.875366,230.810410 
	C675.967468,223.593399 672.757385,217.231018 666.245850,212.492767 
	C655.887512,204.955307 643.806702,202.471771 631.982910,198.940872 
	C621.257690,195.738052 610.397278,192.701294 600.142151,188.315277 
	C593.652283,185.539597 589.209473,179.946365 588.924316,171.877945 
	C588.427185,157.814621 597.506470,150.191696 608.108032,147.252411 
	C628.794922,141.516937 648.508179,145.271439 667.030334,156.979477 
	C669.027771,152.575623 671.002930,148.220886 672.977234,143.868073 
	C663.756348,136.459702 644.794067,130.775726 633.133240,131.031464 
	C625.551514,131.197708 617.948669,131.369019 610.405151,132.072495 
	C600.167297,133.027267 591.095032,137.235352 583.529297,144.095413 
	C574.187988,152.565475 572.105286,163.706131 572.967407,175.767441 
	C573.470276,182.802902 576.043762,188.861969 580.632202,194.143555 
	C586.501038,200.898972 594.404175,204.383377 602.600891,206.899094 
	C615.783508,210.945038 629.285217,213.964447 642.421814,218.141861 
	C650.100159,220.583588 658.164001,224.049057 660.834412,232.520996 
	C664.909729,245.449921 660.240234,256.094025 645.818970,261.969788 
	C637.910217,265.192139 629.563904,265.046448 621.203125,265.044769 
	C607.006287,265.041962 594.242065,260.675629 582.506104,252.961517 
	C580.124512,251.396072 577.925964,249.552032 575.307922,247.584564 
	C573.018127,252.083633 570.927673,256.191254 568.431763,261.095306 
	C573.238586,264.165558 577.647644,267.481995 582.479492,269.981140 
	C603.130371,280.662231 625.098694,281.326904 647.214783,276.716125 
	C657.970154,274.473816 667.357727,268.576477 673.510010,258.902283 
	C675.690796,255.473221 677.122925,251.568100 679.636780,248.322220 
M158.000000,195.500000 
	C158.000000,222.923508 158.000000,250.347000 158.000000,277.718323 
	C163.302551,277.718323 168.041595,277.718323 172.732132,277.718323 
	C172.732132,229.040909 172.732132,180.645615 172.732132,132.212677 
	C168.047577,132.212677 163.633926,132.212677 159.444565,132.212677 
	C138.921951,167.716019 118.546837,202.964157 97.807396,238.842590 
	C76.748032,202.798279 56.097443,167.453598 35.569042,132.318054 
	C30.978725,132.318054 26.563622,132.318054 22.304640,132.318054 
	C22.304640,181.031235 22.304640,229.425888 22.304640,277.692383 
	C27.352509,277.692383 32.091286,277.692383 37.223701,277.692383 
	C37.223701,240.069092 37.223701,202.752167 37.223701,165.435242 
	C43.512287,174.783173 48.886150,184.425323 54.469265,193.944748 
	C66.420547,214.322113 78.495422,234.626938 90.477043,254.986572 
	C92.109001,257.759705 93.268143,260.214386 97.519356,260.219543 
	C101.794876,260.224701 103.001442,257.753235 104.530983,254.946442 
	C106.065437,252.130661 107.536171,249.277512 109.151932,246.509094 
	C123.413002,222.074326 137.690414,197.649078 151.993164,173.238708 
	C153.620560,170.461212 155.433548,167.792450 157.160477,165.073257 
	C157.440323,165.237457 157.720154,165.401657 158.000000,165.565857 
	C158.000000,175.210571 158.000000,184.855286 158.000000,195.500000 
M463.000000,259.499451 
	C463.000000,265.597534 463.000000,271.695587 463.000000,277.708923 
	C468.651459,277.708923 473.723755,277.708923 479.182953,277.708923 
	C479.182953,233.683563 479.182953,189.948059 479.182953,145.818359 
	C496.315918,145.818359 513.057617,145.818359 529.706299,145.818359 
	C529.706299,141.007294 529.706299,136.600418 529.706299,132.285767 
	C455.013641,132.285767 380.615082,132.285767 306.289795,132.285767 
	C306.289795,136.983276 306.289795,141.389679 306.289795,146.184204 
	C323.650421,146.184204 340.724457,146.184204 358.183716,146.184204 
	C358.183716,190.317795 358.183716,234.053650 358.183716,277.707336 
	C363.656128,277.707336 368.728394,277.707336 374.186035,277.707336 
	C374.186035,233.680435 374.186035,189.944931 374.186035,146.290161 
	C403.984070,146.290161 433.386627,146.290161 463.000000,146.290161 
	C463.000000,183.886490 463.000000,221.193024 463.000000,259.499451 
M239.500031,239.000000 
	C258.269226,239.000000 277.038422,239.000000 295.662872,239.000000 
	C301.001495,251.195999 306.085663,262.978577 311.374573,274.668518 
	C311.994904,276.039612 313.678070,277.748444 314.979156,277.847504 
	C319.901611,278.222290 324.869659,277.998199 330.482788,277.998199 
	C329.678375,275.934967 329.186859,274.440643 328.527588,273.024414 
	C325.887512,267.352814 323.122406,261.738647 320.535034,256.043488 
	C308.991882,230.635696 297.496582,205.206192 285.978760,179.786896 
	C279.557587,165.615707 273.062592,151.477463 266.743530,137.260941 
	C265.146332,133.667648 263.369080,131.302185 258.823212,131.899063 
	C255.062683,132.392807 251.185776,132.000000 247.436050,132.000000 
	C225.238724,180.618790 203.133240,229.036453 180.778519,278.000000 
	C185.480682,278.000000 189.762619,277.809906 194.018082,278.063660 
	C197.094345,278.247101 198.793579,277.204651 200.021774,274.343201 
	C204.576706,263.731262 209.427551,253.246307 213.979279,242.633026 
	C215.214447,239.752960 216.952530,238.823288 220.003922,238.933655 
	C226.162048,239.156372 232.333878,239.000000 239.500031,239.000000 
M911.056030,276.541229 
	C919.293823,277.360809 927.531006,278.855743 935.769470,278.862305 
	C954.090881,278.876862 968.462158,270.267761 978.915222,255.765457 
	C988.729248,242.149536 991.044739,226.458939 987.873230,210.107529 
	C985.048706,195.545013 977.223877,184.039520 965.085815,175.540085 
	C949.507324,164.631500 932.035095,163.951294 914.350891,167.504562 
	C901.389221,170.108932 890.854675,177.490997 882.927673,188.272430 
	C872.775696,202.079956 869.769531,217.609619 873.119629,234.113922 
	C877.377930,255.092499 889.691101,269.437469 911.056030,276.541229 
M537.000000,151.500427 
	C537.000000,193.591904 537.000000,235.683365 537.000000,277.714294 
	C542.640930,277.714294 547.713135,277.714294 552.718018,277.714294 
	C552.718018,229.027451 552.718018,180.626877 552.718018,132.285706 
	C547.359070,132.285706 542.286926,132.285706 537.000000,132.285706 
	C537.000000,138.546738 537.000000,144.523697 537.000000,151.500427 
z"/>
<path fill="#000000" opacity="1.000000" stroke="none" 
	d="
M158.000000,195.000000 
	C158.000000,184.855286 158.000000,175.210571 158.000000,165.565857 
	C157.720154,165.401657 157.440323,165.237457 157.160477,165.073257 
	C155.433548,167.792450 153.620560,170.461212 151.993164,173.238708 
	C137.690414,197.649078 123.413002,222.074326 109.151932,246.509094 
	C107.536171,249.277512 106.065437,252.130661 104.530983,254.946442 
	C103.001442,257.753235 101.794876,260.224701 97.519356,260.219543 
	C93.268143,260.214386 92.109001,257.759705 90.477043,254.986572 
	C78.495422,234.626938 66.420547,214.322113 54.469265,193.944748 
	C48.886150,184.425323 43.512287,174.783173 37.223701,165.435242 
	C37.223701,202.752167 37.223701,240.069092 37.223701,277.692383 
	C32.091286,277.692383 27.352509,277.692383 22.304640,277.692383 
	C22.304640,229.425888 22.304640,181.031235 22.304640,132.318054 
	C26.563622,132.318054 30.978725,132.318054 35.569042,132.318054 
	C56.097443,167.453598 76.748032,202.798279 97.807396,238.842590 
	C118.546837,202.964157 138.921951,167.716019 159.444565,132.212677 
	C163.633926,132.212677 168.047577,132.212677 172.732132,132.212677 
	C172.732132,180.645615 172.732132,229.040909 172.732132,277.718323 
	C168.041595,277.718323 163.302551,277.718323 158.000000,277.718323 
	C158.000000,250.347000 158.000000,222.923508 158.000000,195.000000 
z"/>
<path fill="#000000" opacity="1.000000" stroke="none" 
	d="
M463.000000,258.999512 
	C463.000000,221.193024 463.000000,183.886490 463.000000,146.290161 
	C433.386627,146.290161 403.984070,146.290161 374.186035,146.290161 
	C374.186035,189.944931 374.186035,233.680435 374.186035,277.707336 
	C368.728394,277.707336 363.656128,277.707336 358.183716,277.707336 
	C358.183716,234.053650 358.183716,190.317795 358.183716,146.184204 
	C340.724457,146.184204 323.650421,146.184204 306.289795,146.184204 
	C306.289795,141.389679 306.289795,136.983276 306.289795,132.285767 
	C380.615082,132.285767 455.013641,132.285767 529.706299,132.285767 
	C529.706299,136.600418 529.706299,141.007294 529.706299,145.818359 
	C513.057617,145.818359 496.315918,145.818359 479.182953,145.818359 
	C479.182953,189.948059 479.182953,233.683563 479.182953,277.708923 
	C473.723755,277.708923 468.651459,277.708923 463.000000,277.708923 
	C463.000000,271.695587 463.000000,265.597534 463.000000,258.999512 
z"/>
<path fill="#000000" opacity="1.000000" stroke="none" 
	d="
M239.000046,239.000000 
	C232.333878,239.000000 226.162048,239.156372 220.003922,238.933655 
	C216.952530,238.823288 215.214447,239.752960 213.979279,242.633026 
	C209.427551,253.246307 204.576706,263.731262 200.021774,274.343201 
	C198.793579,277.204651 197.094345,278.247101 194.018082,278.063660 
	C189.762619,277.809906 185.480682,278.000000 180.778519,278.000000 
	C203.133240,229.036453 225.238724,180.618790 247.436050,132.000000 
	C251.185776,132.000000 255.062683,132.392807 258.823212,131.899063 
	C263.369080,131.302185 265.146332,133.667648 266.743530,137.260941 
	C273.062592,151.477463 279.557587,165.615707 285.978760,179.786896 
	C297.496582,205.206192 308.991882,230.635696 320.535034,256.043488 
	C323.122406,261.738647 325.887512,267.352814 328.527588,273.024414 
	C329.186859,274.440643 329.678375,275.934967 330.482788,277.998199 
	C324.869659,277.998199 319.901611,278.222290 314.979156,277.847504 
	C313.678070,277.748444 311.994904,276.039612 311.374573,274.668518 
	C306.085663,262.978577 301.001495,251.195999 295.662872,239.000000 
	C277.038422,239.000000 258.269226,239.000000 239.000046,239.000000 
M268.040466,177.448257 
	C264.044281,168.579330 260.048065,159.710403 255.560165,149.750198 
	C243.997894,175.761215 232.966568,200.577774 221.772720,225.759964 
	C244.409470,225.759964 266.603210,225.759964 288.970703,225.759964 
	C288.876526,224.817551 289.000275,223.920227 288.684235,223.221970 
	C285.318085,215.784576 281.811523,208.410294 278.485107,200.955505 
	C275.093506,193.354599 271.860229,185.683090 268.040466,177.448257 
z"/>
<path fill="#000000" opacity="1.000000" stroke="none" 
	d="
M678.896851,247.880295 
	C677.122925,251.568100 675.690796,255.473221 673.510010,258.902283 
	C667.357727,268.576477 657.970154,274.473816 647.214783,276.716125 
	C625.098694,281.326904 603.130371,280.662231 582.479492,269.981140 
	C577.647644,267.481995 573.238586,264.165558 568.431763,261.095306 
	C570.927673,256.191254 573.018127,252.083633 575.307922,247.584564 
	C577.925964,249.552032 580.124512,251.396072 582.506104,252.961517 
	C594.242065,260.675629 607.006287,265.041962 621.203125,265.044769 
	C629.563904,265.046448 637.910217,265.192139 645.818970,261.969788 
	C660.240234,256.094025 664.909729,245.449921 660.834412,232.520996 
	C658.164001,224.049057 650.100159,220.583588 642.421814,218.141861 
	C629.285217,213.964447 615.783508,210.945038 602.600891,206.899094 
	C594.404175,204.383377 586.501038,200.898972 580.632202,194.143555 
	C576.043762,188.861969 573.470276,182.802902 572.967407,175.767441 
	C572.105286,163.706131 574.187988,152.565475 583.529297,144.095413 
	C591.095032,137.235352 600.167297,133.027267 610.405151,132.072495 
	C617.948669,131.369019 625.551514,131.197708 633.133240,131.031464 
	C644.794067,130.775726 663.756348,136.459702 672.977234,143.868073 
	C671.002930,148.220886 669.027771,152.575623 667.030334,156.979477 
	C648.508179,145.271439 628.794922,141.516937 608.108032,147.252411 
	C597.506470,150.191696 588.427185,157.814621 588.924316,171.877945 
	C589.209473,179.946365 593.652283,185.539597 600.142151,188.315277 
	C610.397278,192.701294 621.257690,195.738052 631.982910,198.940872 
	C643.806702,202.471771 655.887512,204.955307 666.245850,212.492767 
	C672.757385,217.231018 675.967468,223.593399 677.875366,230.810410 
	C678.904114,234.702118 678.672241,238.927063 679.016479,243.844757 
	C678.981445,245.751999 678.939148,246.816147 678.896851,247.880295 
z"/>
<path fill="#898989" opacity="1.000000" stroke="none" 
	d="
M910.706787,276.332947 
	C889.691101,269.437469 877.377930,255.092499 873.119629,234.113922 
	C869.769531,217.609619 872.775696,202.079956 882.927673,188.272430 
	C890.854675,177.490997 901.389221,170.108932 914.350891,167.504562 
	C932.035095,163.951294 949.507324,164.631500 965.085815,175.540085 
	C977.223877,184.039520 985.048706,195.545013 987.873230,210.107529 
	C991.044739,226.458939 988.729248,242.149536 978.915222,255.765457 
	C968.462158,270.267761 954.090881,278.876862 935.769470,278.862305 
	C927.531006,278.855743 919.293823,277.360809 910.706787,276.332947 
M974.990417,234.274673 
	C978.208130,218.315323 976.090149,203.305069 964.545654,191.300262 
	C953.156006,179.456436 938.920715,175.099838 922.291870,177.870193 
	C895.625977,182.312714 881.032410,205.420258 885.282043,230.756683 
	C890.209961,260.136810 918.739136,273.158417 943.583374,266.148132 
	C959.775208,261.579285 970.044861,251.082245 974.990417,234.274673 
z"/>
<path fill="#898989" opacity="1.000000" stroke="none" 
	d="
M679.266846,248.101257 
	C678.939148,246.816147 678.981445,245.751999 679.075439,244.291504 
	C681.112305,240.407623 682.491943,236.328339 685.204895,233.551880 
	C691.442566,227.168121 698.329224,221.418503 704.945435,215.417953 
	C702.404907,211.577698 698.774231,206.915314 696.025513,201.780792 
	C687.531616,185.914688 696.647400,166.357941 717.438599,166.033325 
	C721.948120,165.962906 726.598816,165.677521 730.954163,166.590393 
	C750.226440,170.629837 753.174316,193.205063 740.902832,205.387344 
	C736.094360,210.160843 730.144714,213.784851 724.622925,218.002548 
	C733.701538,227.536545 743.069397,237.374313 753.481079,248.308273 
	C756.230408,240.587540 758.594910,233.947418 761.098328,226.917206 
	C763.993835,227.889954 767.204224,228.968445 771.245422,230.326065 
	C768.179321,239.014969 765.223389,247.391617 762.009521,256.499146 
	C766.290344,261.192261 771.422241,266.818329 776.592896,272.486908 
	C776.514404,272.649139 776.443787,272.982391 776.241821,273.184357 
	C773.974182,275.452637 770.292175,279.981354 769.633423,279.578674 
	C765.780090,277.223267 762.551392,273.794891 759.282227,270.556610 
	C757.667358,268.956940 756.417603,266.988678 754.803040,264.933075 
	C746.833618,272.025330 738.206909,277.351044 727.816406,278.537140 
	C713.843628,280.132111 699.961304,279.924347 688.259521,270.526520 
	C683.404785,266.627686 680.626526,261.126801 680.014282,254.766586 
	C679.808289,252.626190 679.758179,250.470764 679.266846,248.101257 
M720.361206,269.000000 
	C730.672791,268.653168 739.299744,264.815552 746.261292,257.009186 
	C736.033569,246.357971 726.214172,236.012268 716.178528,225.880737 
	C715.257507,224.950882 712.380859,224.600754 711.390198,225.322891 
	C705.960449,229.280838 700.461182,233.277939 695.697205,237.982086 
	C689.074463,244.521545 691.033081,257.882355 698.489502,263.273499 
	C704.847900,267.870667 711.772156,269.537994 720.361206,269.000000 
M726.477905,204.016785 
	C728.851562,201.981323 731.485962,200.178818 733.550842,197.867477 
	C740.170044,190.458038 738.177002,177.905945 727.433899,175.843430 
	C724.881409,175.353394 722.209473,174.837570 719.662292,175.076630 
	C706.868103,176.277313 701.384521,185.752747 706.428528,197.356781 
	C708.513123,202.152542 712.882629,205.955093 716.419250,210.472885 
	C719.897705,208.296753 722.922974,206.404114 726.477905,204.016785 
z"/>
<path fill="#898989" opacity="1.000000" stroke="none" 
	d="
M830.890503,279.041107 
	C818.926208,279.983521 807.802124,276.741852 798.092957,270.277710 
	C787.358032,263.130676 779.528870,253.370346 775.677368,240.509750 
	C770.164978,222.103745 772.422363,204.829559 783.110474,189.227173 
	C793.348816,174.281372 808.223267,166.683334 826.495972,165.978012 
	C838.330872,165.521179 849.994995,166.044174 860.502319,172.276367 
	C864.964661,174.923111 869.015930,178.262909 873.571716,181.514450 
	C872.377441,182.893127 871.701538,183.796143 870.904053,184.574722 
	C864.317627,191.004822 866.116150,190.538223 858.468567,185.180237 
	C846.835449,177.029953 833.771851,174.986572 819.921814,178.530731 
	C801.407104,183.268570 789.853088,195.297516 786.389954,213.699936 
	C781.554016,239.396759 797.798035,262.509186 822.658569,267.025482 
	C837.683105,269.754913 851.008850,266.717834 862.453857,256.236542 
	C863.226624,255.528870 865.599609,255.586853 866.553223,256.253876 
	C868.845703,257.857483 870.736694,260.035034 873.115173,262.289673 
	C862.104858,274.251648 848.832581,279.621857 832.259460,279.015991 
	C831.296692,279.029297 831.093567,279.035187 830.890503,279.041107 
z"/>
<path fill="#000000" opacity="1.000000" stroke="none" 
	d="
M537.000000,151.000534 
	C537.000000,144.523697 537.000000,138.546738 537.000000,132.285706 
	C542.286926,132.285706 547.359070,132.285706 552.718018,132.285706 
	C552.718018,180.626877 552.718018,229.027451 552.718018,277.714294 
	C547.713135,277.714294 542.640930,277.714294 537.000000,277.714294 
	C537.000000,235.683365 537.000000,193.591904 537.000000,151.000534 
z"/>
<path fill="#898989" opacity="1.000000" stroke="none" 
	d="
M830.991638,279.272949 
	C831.093567,279.035187 831.296692,279.029297 831.804626,279.032227 
	C831.770569,279.195618 831.431702,279.350220 830.991638,279.272949 
z"/>
<path fill="#FFFFFF" opacity="1.000000" stroke="none" 
	d="
M268.299072,177.745377 
	C271.860229,185.683090 275.093506,193.354599 278.485107,200.955505 
	C281.811523,208.410294 285.318085,215.784576 288.684235,223.221970 
	C289.000275,223.920227 288.876526,224.817551 288.970703,225.759964 
	C266.603210,225.759964 244.409470,225.759964 221.772720,225.759964 
	C232.966568,200.577774 243.997894,175.761215 255.560165,149.750198 
	C260.048065,159.710403 264.044281,168.579330 268.299072,177.745377 
z"/>
<path fill="#FFFFFF" opacity="1.000000" stroke="none" 
	d="
M974.953064,234.692413 
	C970.044861,251.082245 959.775208,261.579285 943.583374,266.148132 
	C918.739136,273.158417 890.209961,260.136810 885.282043,230.756683 
	C881.032410,205.420258 895.625977,182.312714 922.291870,177.870193 
	C938.920715,175.099838 953.156006,179.456436 964.545654,191.300262 
	C976.090149,203.305069 978.208130,218.315323 974.953064,234.692413 
z"/>
<path fill="#FFFFFF" opacity="1.000000" stroke="none" 
	d="
M719.889099,269.000000 
	C711.772156,269.537994 704.847900,267.870667 698.489502,263.273499 
	C691.033081,257.882355 689.074463,244.521545 695.697205,237.982086 
	C700.461182,233.277939 705.960449,229.280838 711.390198,225.322891 
	C712.380859,224.600754 715.257507,224.950882 716.178528,225.880737 
	C726.214172,236.012268 736.033569,246.357971 746.261292,257.009186 
	C739.299744,264.815552 730.672791,268.653168 719.889099,269.000000 
z"/>
<path fill="#FFFFFF" opacity="1.000000" stroke="none" 
	d="
M726.213135,204.264130 
	C722.922974,206.404114 719.897705,208.296753 716.419250,210.472885 
	C712.882629,205.955093 708.513123,202.152542 706.428528,197.356781 
	C701.384521,185.752747 706.868103,176.277313 719.662292,175.076630 
	C722.209473,174.837570 724.881409,175.353394 727.433899,175.843430 
	C738.177002,177.905945 740.170044,190.458038 733.550842,197.867477 
	C731.485962,200.178818 728.851562,201.981323 726.213135,204.264130 
z"/>
</svg>